<?xml version="1.0" encoding="utf-8"?>
<!-- Generator: Adobe Illustrator 19.0.0, SVG Export Plug-In . SVG Version: 6.00 Build 0)  -->
<!DOCTYPE svg PUBLIC "-//W3C//DTD SVG 1.1//EN" "http://www.w3.org/Graphics/SVG/1.1/DTD/svg11.dtd">
<svg version="1.1" id="Ebene_1" xmlns="http://www.w3.org/2000/svg" xmlns:xlink="http://www.w3.org/1999/xlink" x="0px" y="0px"
	 viewBox="0 0 116.17 51.02" enable-background="new 0 0 116.17 51.02" xml:space="preserve">
<g>
	<path d="M42.89,31.28h-2.25V19.74h3.36l2.94,9.21l2.92-9.21h3.36v11.54h-2.33v-8.54l-2.7,8.54h-2.52l-2.77-8.61V31.28z
		 M58.21,31.28h-2.39V19.74h2.39V31.28z M63.12,31.28h-2.29V19.74h2.82l4.6,8.37v-8.37h2.29v11.54h-2.82l-4.59-8.33V31.28z
		 M75.54,31.28h-2.38V19.74h2.38V31.28z M92.49,35.53H81.54c0.58-1.36,1.04-2.78,1.39-4.25h13.81l3.64-3.64H83.5
		c0.06-0.7,0.09-1.41,0.09-2.13c0-0.72-0.04-1.42-0.09-2.13h21.13l3.64-3.64H82.93c-0.34-1.47-0.8-2.89-1.39-4.26h30.98l3.64-3.64
		H79.61C75.08,4.73,67.13,0,58.08,0c-9.04,0-16.99,4.73-21.53,11.85H0l3.64,3.64h30.99c-0.58,1.36-1.05,2.78-1.39,4.26H7.89
		l3.64,3.64h21.13c-0.06,0.7-0.1,1.41-0.1,2.13c0,0.72,0.04,1.42,0.1,2.13H15.79l3.64,3.64h13.81c0.34,1.47,0.81,2.89,1.39,4.25
		H23.68l3.64,3.64h9.24c4.53,7.11,12.49,11.85,21.53,11.85c9.04,0,17-4.73,21.53-11.85h9.23L92.49,35.53z M58.08,47.38
		c-12.06,0-21.87-9.81-21.87-21.87c0-12.06,9.81-21.87,21.87-21.87c12.06,0,21.87,9.81,21.87,21.87
		C79.96,37.57,70.14,47.38,58.08,47.38"/>
</g>
</svg>
